# Blender v2.90.1 OBJ File: 'Base.blend'
# www.blender.org
mtllib Button.mtl
o Button_cube.001
v 0.026583 2.024446 1.947183
v 0.026583 2.089946 2.060632
v 0.026583 2.137895 1.881683
v 0.026583 2.203395 1.995132
v 0.157583 2.024446 1.947183
v 0.157583 2.089946 2.060632
v 0.157583 2.137895 1.881683
v 0.157583 2.203395 1.995132
vn -1.0000 0.0000 0.0000
vn 0.0000 0.8660 -0.5000
vn 1.0000 0.0000 0.0000
vn 0.0000 -0.8660 0.5000
vn 0.0000 -0.5000 -0.8660
vn 0.0000 0.5000 0.8660
usemtl None
s off
f 1//1 2//1 4//1 3//1
f 3//2 4//2 8//2 7//2
f 8//3 5//3 7//3
f 5//4 6//4 2//4 1//4
f 3//5 7//5 5//5 1//5
f 8//6 4//6 2//6 6//6
f 8//3 6//3 5//3
