# Blender v2.90.1 OBJ File: 'Base.blend'
# www.blender.org
mtllib Projectile.mtl
o Projectile_dodecahedron
v -0.002188 2.503592 2.661880
v -0.002188 2.441789 2.661880
v 0.047812 2.422691 2.630979
v 0.078714 2.472691 2.611881
v 0.047812 2.522691 2.630979
v 0.028714 2.553592 2.580979
v -0.033089 2.553592 2.580979
v -0.052188 2.522691 2.630979
v -0.083089 2.472691 2.611881
v -0.052188 2.422691 2.630979
v -0.033089 2.391789 2.580979
v 0.028714 2.391789 2.580979
v -0.002188 2.441789 2.500077
v -0.002188 2.503592 2.500077
v 0.047812 2.522691 2.530979
v 0.078714 2.472691 2.550077
v 0.047812 2.422691 2.530979
v -0.052188 2.422691 2.530979
v -0.083089 2.472691 2.550077
v -0.052188 2.522691 2.530979
vn 0.0000 -0.3568 0.9342
vn 0.5773 -0.5773 0.5773
vn 0.9342 0.0000 0.3568
vn 0.5773 0.5773 0.5773
vn 0.3568 0.9342 0.0000
vn -0.3568 0.9342 0.0000
vn -0.9342 0.0000 0.3568
vn -0.5773 -0.5773 0.5773
vn -0.3568 -0.9342 0.0000
vn 0.3568 -0.9342 0.0000
vn 0.0000 0.3568 -0.9342
vn 0.5773 0.5773 -0.5773
vn 0.9342 0.0000 -0.3568
vn 0.5773 -0.5773 -0.5773
vn -0.9342 0.0000 -0.3568
vn -0.5773 0.5773 -0.5773
vn -0.5773 -0.5773 -0.5773
vn 0.0000 0.3568 0.9342
vn -0.5773 0.5773 0.5773
vn 0.0000 -0.3568 -0.9342
usemtl Default_OBJ.001
s 1
f 2//1 3//2 4//3
f 5//4 6//5 7//6
f 9//7 10//8 2//1
f 10//8 11//9 12//10
f 14//11 15//12 16//13
f 17//14 12//10 11//9
f 19//15 20//16 14//11
f 6//5 15//12 14//11
f 12//10 16//13 4//3
f 16//13 15//12 6//5
f 7//6 19//15 9//7
f 19//15 18//17 11//9
f 5//4 1//18 4//3
f 1//18 2//1 4//3
f 8//19 1//18 7//6
f 1//18 5//4 7//6
f 2//1 1//18 8//19
f 8//19 9//7 2//1
f 3//2 2//1 12//10
f 2//1 10//8 12//10
f 17//14 13//20 16//13
f 13//20 14//11 16//13
f 18//17 13//20 11//9
f 13//20 17//14 11//9
f 14//11 13//20 18//17
f 18//17 19//15 14//11
f 14//11 20//16 7//6
f 7//6 6//5 14//11
f 4//3 3//2 12//10
f 12//10 17//14 16//13
f 5//4 4//3 6//5
f 4//3 16//13 6//5
f 9//7 8//19 7//6
f 7//6 20//16 19//15
f 10//8 9//7 11//9
f 9//7 19//15 11//9
