# Blender v2.90.1 OBJ File: 'Base.blend'
# www.blender.org
mtllib Tombstone.mtl
o Tombstone_Cylinder
v 0.006994 0.378028 -0.738993
v 0.006994 2.378028 -0.738993
v 0.143557 0.378028 -0.725542
v 0.143557 2.378028 -0.725542
v 0.274872 0.378028 -0.685708
v 0.274872 2.378028 -0.685708
v 0.395893 0.378028 -0.621021
v 0.395893 2.378028 -0.621021
v 0.501969 0.378028 -0.533967
v 0.501969 2.378028 -0.533967
v 0.589023 0.378028 -0.427892
v 0.589023 2.378028 -0.427892
v 0.653709 0.378028 -0.306871
v 0.653709 2.378028 -0.306871
v 0.693543 0.378028 -0.175556
v 0.693543 2.378028 -0.175556
v 0.706994 0.378028 -0.038993
v 0.706994 2.378028 -0.038993
v 0.693543 0.378028 0.097570
v 0.693543 2.378028 0.097570
v 0.653709 0.378028 0.228886
v 0.653709 2.378028 0.228886
v 0.589023 0.378028 0.349906
v 0.589023 2.378028 0.349906
v 0.501969 0.378028 0.455982
v 0.501969 2.378028 0.455982
v 0.395893 0.378028 0.543036
v 0.395893 2.378028 0.543036
v 0.274872 0.378028 0.607723
v 0.274872 2.378028 0.607723
v 0.143557 0.378028 0.647557
v 0.143557 2.378028 0.647557
v 0.006994 0.378028 0.661007
v 0.006994 2.378028 0.661007
v -0.129570 0.378028 0.647557
v -0.129570 2.378028 0.647557
v -0.260885 0.378028 0.607723
v -0.260885 2.378028 0.607723
v -0.381906 0.378028 0.543036
v -0.381906 2.378028 0.543036
v -0.487981 0.378028 0.455982
v -0.487981 2.378028 0.455982
v -0.575035 0.378028 0.349906
v -0.575035 2.378028 0.349906
v -0.639722 0.378028 0.228885
v -0.639722 2.378028 0.228885
v -0.679556 0.378028 0.097570
v -0.679556 2.378028 0.097570
v -0.693006 0.378028 -0.038993
v -0.693006 2.378028 -0.038993
v -0.679556 0.378028 -0.175557
v -0.679556 2.378028 -0.175557
v -0.639722 0.378028 -0.306872
v -0.639722 2.378028 -0.306872
v -0.575034 0.378028 -0.427893
v -0.575034 2.378028 -0.427893
v -0.487980 0.378028 -0.533968
v -0.487980 2.378028 -0.533968
v -0.381905 0.378028 -0.621022
v -0.381905 2.378028 -0.621022
v -0.260884 0.378028 -0.685709
v -0.260884 2.378028 -0.685709
v -0.129568 0.378028 -0.725543
v -0.129568 2.378028 -0.725543
vn 0.0000 0.6857 -0.7279
vn 0.1420 -0.6857 -0.7139
vn 0.0000 -0.6857 -0.7279
vn 0.1420 0.6857 -0.7139
vn 0.2785 -0.6857 -0.6725
vn 0.2785 0.6857 -0.6725
vn 0.4044 -0.6857 -0.6052
vn 0.4044 0.6857 -0.6052
vn 0.5147 -0.6857 -0.5147
vn 0.5147 0.6857 -0.5147
vn 0.6052 -0.6857 -0.4044
vn 0.6052 0.6857 -0.4044
vn 0.6725 -0.6857 -0.2785
vn 0.6725 0.6857 -0.2785
vn 0.7139 -0.6857 -0.1420
vn 0.7139 0.6857 -0.1420
vn 0.7279 -0.6857 0.0000
vn 0.7279 0.6857 0.0000
vn 0.7139 -0.6857 0.1420
vn 0.7139 0.6857 0.1420
vn 0.6725 -0.6857 0.2785
vn 0.6725 0.6857 0.2785
vn 0.6052 -0.6857 0.4044
vn 0.6052 0.6857 0.4044
vn 0.5147 -0.6857 0.5147
vn 0.5147 0.6857 0.5147
vn 0.4044 -0.6857 0.6052
vn 0.4044 0.6857 0.6052
vn 0.2785 -0.6857 0.6725
vn 0.2785 0.6857 0.6725
vn 0.1420 -0.6857 0.7139
vn 0.1420 0.6857 0.7139
vn 0.0000 -0.6857 0.7279
vn 0.0000 0.6857 0.7279
vn -0.1420 -0.6857 0.7139
vn -0.1420 0.6857 0.7139
vn -0.2785 -0.6857 0.6725
vn -0.2785 0.6857 0.6725
vn -0.4044 -0.6857 0.6052
vn -0.4044 0.6857 0.6052
vn -0.5147 -0.6857 0.5147
vn -0.5147 0.6857 0.5147
vn -0.6052 -0.6857 0.4044
vn -0.6052 0.6857 0.4044
vn -0.6725 -0.6857 0.2785
vn -0.6725 0.6857 0.2785
vn -0.7139 -0.6857 0.1420
vn -0.7139 0.6857 0.1420
vn -0.7279 -0.6857 0.0000
vn -0.7279 0.6857 0.0000
vn -0.7139 -0.6857 -0.1420
vn -0.7139 0.6857 -0.1420
vn -0.6725 -0.6857 -0.2785
vn -0.6725 0.6857 -0.2785
vn -0.6052 -0.6857 -0.4044
vn -0.6052 0.6857 -0.4044
vn -0.5147 -0.6857 -0.5147
vn -0.5147 0.6857 -0.5147
vn -0.4044 -0.6857 -0.6052
vn -0.4044 0.6857 -0.6052
vn -0.2785 -0.6857 -0.6725
vn -0.2785 0.6857 -0.6725
vn -0.1420 -0.6857 -0.7139
vn -0.1420 0.6857 -0.7139
usemtl None
s 1
f 2//1 3//2 1//3
f 4//4 5//5 3//2
f 6//6 7//7 5//5
f 8//8 9//9 7//7
f 10//10 11//11 9//9
f 12//12 13//13 11//11
f 14//14 15//15 13//13
f 16//16 17//17 15//15
f 18//18 19//19 17//17
f 20//20 21//21 19//19
f 22//22 23//23 21//21
f 24//24 25//25 23//23
f 26//26 27//27 25//25
f 28//28 29//29 27//27
f 30//30 31//31 29//29
f 32//32 33//33 31//31
f 34//34 35//35 33//33
f 36//36 37//37 35//35
f 38//38 39//39 37//37
f 40//40 41//41 39//39
f 42//42 43//43 41//41
f 44//44 45//45 43//43
f 46//46 47//47 45//45
f 48//48 49//49 47//47
f 50//50 51//51 49//49
f 52//52 53//53 51//51
f 54//54 55//55 53//53
f 56//56 57//57 55//55
f 58//58 59//59 57//57
f 60//60 61//61 59//59
f 38//38 22//22 6//6
f 62//62 63//63 61//61
f 64//64 1//3 63//63
f 15//15 31//31 47//47
f 2//1 4//4 3//2
f 4//4 6//6 5//5
f 6//6 8//8 7//7
f 8//8 10//10 9//9
f 10//10 12//12 11//11
f 12//12 14//14 13//13
f 14//14 16//16 15//15
f 16//16 18//18 17//17
f 18//18 20//20 19//19
f 20//20 22//22 21//21
f 22//22 24//24 23//23
f 24//24 26//26 25//25
f 26//26 28//28 27//27
f 28//28 30//30 29//29
f 30//30 32//32 31//31
f 32//32 34//34 33//33
f 34//34 36//36 35//35
f 36//36 38//38 37//37
f 38//38 40//40 39//39
f 40//40 42//42 41//41
f 42//42 44//44 43//43
f 44//44 46//46 45//45
f 46//46 48//48 47//47
f 48//48 50//50 49//49
f 50//50 52//52 51//51
f 52//52 54//54 53//53
f 54//54 56//56 55//55
f 56//56 58//58 57//57
f 58//58 60//60 59//59
f 60//60 62//62 61//61
f 6//6 4//4 62//62
f 4//4 2//1 62//62
f 2//1 64//64 62//62
f 62//62 60//60 58//58
f 58//58 56//56 54//54
f 54//54 52//52 50//50
f 50//50 48//48 46//46
f 46//46 44//44 38//38
f 44//44 42//42 38//38
f 42//42 40//40 38//38
f 38//38 36//36 34//34
f 34//34 32//32 38//38
f 32//32 30//30 38//38
f 30//30 28//28 26//26
f 26//26 24//24 22//22
f 22//22 20//20 18//18
f 18//18 16//16 22//22
f 16//16 14//14 22//22
f 14//14 12//12 10//10
f 10//10 8//8 6//6
f 62//62 58//58 6//6
f 58//58 54//54 6//6
f 54//54 50//50 38//38
f 50//50 46//46 38//38
f 30//30 26//26 38//38
f 26//26 22//22 38//38
f 14//14 10//10 6//6
f 22//22 14//14 6//6
f 6//6 54//54 38//38
f 62//62 64//64 63//63
f 64//64 2//1 1//3
f 63//63 1//3 3//2
f 3//2 5//5 7//7
f 7//7 9//9 11//11
f 11//11 13//13 7//7
f 13//13 15//15 7//7
f 15//15 17//17 19//19
f 19//19 21//21 15//15
f 21//21 23//23 15//15
f 23//23 25//25 31//31
f 25//25 27//27 31//31
f 27//27 29//29 31//31
f 31//31 33//33 35//35
f 35//35 37//37 39//39
f 39//39 41//41 43//43
f 43//43 45//45 47//47
f 47//47 49//49 51//51
f 51//51 53//53 55//55
f 55//55 57//57 63//63
f 57//57 59//59 63//63
f 59//59 61//61 63//63
f 63//63 3//2 7//7
f 31//31 35//35 47//47
f 35//35 39//39 47//47
f 39//39 43//43 47//47
f 47//47 51//51 63//63
f 51//51 55//55 63//63
f 63//63 7//7 15//15
f 15//15 23//23 31//31
f 63//63 15//15 47//47
